<svg xmlns="http://www.w3.org/2000/svg" width="124" height="62" viewBox="0 0 124 62"><g fill="none" fill-rule="evenodd" transform="translate(7.714 16)"><g><path fill="#E3E3E3" d="M6.44 8.07c-3.36 5.36-1.52 12.3 4.1 15.51 5.63 3.2 12.9 1.45 16.26-3.91 3.36-5.37 1.52-12.32-4.1-15.52C17.08.95 9.8 2.71 6.44 8.07m-.33.02c3.47-5.55 11-7.36 16.82-4.05 5.81 3.31 7.71 10.5 4.24 16.05-3.47 5.55-11 7.36-16.82 4.05-5.81-3.31-7.72-10.5-4.24-16.05"/><path fill="#CCCCCC" d="M23.77 9.15C21.44 3.91 15.1 1.46 9.6 3.68 4.11 5.9 1.54 11.95 3.87 17.2c2.33 5.25 8.67 7.7 14.16 5.48 5.5-2.22 8.06-8.28 5.74-13.52m.71-.62c2.48 5.58-.26 12.03-6.1 14.4-5.86 2.36-12.61-.25-15.1-5.84C.82 11.51 3.55 5.07 9.4 2.7 15.25.34 22 2.95 24.48 8.53"/><path fill="#969696" d="M18.23 24.33c5.21-1.8 7.9-7.3 6.01-12.28-1.9-4.97-7.65-7.54-12.86-5.73-5.21 1.8-7.9 7.3-6.01 12.27 1.9 4.98 7.65 7.54 12.86 5.74m.6.67c-5.89 2.04-12.39-.86-14.52-6.47-2.14-5.62.9-11.82 6.78-13.86 5.88-2.04 12.38.86 14.52 6.47 2.13 5.61-.9 11.82-6.78 13.86"/><path fill="#C8C8C8" d="M13.08 4.41c-5.54 0-10.04 4.29-10.04 9.58s4.5 9.58 10.04 9.58c5.54 0 10.04-4.3 10.04-9.58 0-5.29-4.5-9.58-10.04-9.58m.24-1.1c6.26 0 11.34 4.83 11.34 10.8 0 5.97-5.08 10.82-11.34 10.82C7.07 24.93 2 20.08 2 14.1c0-5.97 5.08-10.8 11.33-10.8"/><path fill="#EEEEEE" d="M19.9 2.54C13.55-.56 5.75 1.84 2.5 7.9c-3.26 6.06-.75 13.5 5.6 16.6 6.35 3.11 14.15.72 17.4-5.34 3.26-6.06.75-13.5-5.6-16.6m.15-1.1c6.77 3.3 9.44 11.23 5.97 17.68-3.47 6.46-11.77 9-18.53 5.7C.72 21.52-1.95 13.6 1.52 7.15 4.99.69 13.29-1.86 20.05 1.45"/><path fill="#DFDFDF" d="M15.15 4.73c-6.47 0-11.72 5-11.72 11.18 0 6.17 5.25 11.18 11.72 11.18 6.47 0 11.72-5 11.72-11.18S21.62 4.73 15.15 4.73m-.2-.26c6.7 0 12.13 5.18 12.13 11.57 0 6.39-5.43 11.57-12.12 11.57-6.7 0-12.13-5.18-12.13-11.57 0-6.39 5.43-11.57 12.13-11.57"/></g><path fill="#777777" d="M42.77 14.59c.7 0 1.36-.17 1.95-.5.59-.35 1.07-.8 1.45-1.36l1.44 1.08a6.08 6.08 0 0 1-2.08 1.79 5.8 5.8 0 0 1-2.76.66 6.1 6.1 0 0 1-5.53-8.43 6.14 6.14 0 0 1 3.2-3.22c.72-.32 1.5-.48 2.33-.48 1 0 1.92.22 2.76.66a6.08 6.08 0 0 1 2.08 1.79l-1.44 1.08a4.25 4.25 0 0 0-1.45-1.35c-.6-.34-1.24-.5-1.95-.5-.58 0-1.11.1-1.62.34-.5.23-.94.55-1.32.94a4.56 4.56 0 0 0-.89 4.81c.22.53.52 1 .9 1.4.37.4.8.7 1.31.94.5.23 1.04.35 1.62.35zm9.94 1.67h1.78V4.11H52.7v12.15zm15.77-6.65a4.31 4.31 0 0 1-1.89 2.4.2.2 0 0 0-.08.06l2.14 4.2h-1.88l-1.87-3.66a4.66 4.66 0 0 1-.83.07H61.9v3.6h-1.78V4.09h3.95a5.01 5.01 0 0 1 2.6.72 4.14 4.14 0 0 1 1.9 2.67v.08c.01.05.03.11.03.18l.03.2v.02l.02.2v.46l-.02.2v.03l-.03.2c0 .05-.02.12-.04.18v.07c-.04.12-.07.23-.08.31zm-4.2 1.51c.37 0 .7-.08 1-.23.31-.16.58-.36.8-.62.22-.25.4-.54.53-.87a2.7 2.7 0 0 0 0-2.04 2.67 2.67 0 0 0-1.32-1.48c-.3-.15-.64-.23-1-.23h-2.37v5.47h2.37zm14.8 3.47c.72 0 1.37-.17 1.96-.5.59-.35 1.07-.8 1.45-1.36l1.44 1.08a6.08 6.08 0 0 1-2.08 1.79 5.8 5.8 0 0 1-2.76.66 6.1 6.1 0 0 1-5.53-8.43 6.14 6.14 0 0 1 3.2-3.22c.72-.32 1.5-.48 2.33-.48 1 0 1.92.22 2.76.66a6.08 6.08 0 0 1 2.08 1.79l-1.44 1.08a4.25 4.25 0 0 0-1.45-1.35c-.6-.34-1.24-.5-1.95-.5-.58 0-1.11.1-1.62.34-.5.23-.94.55-1.32.94a4.56 4.56 0 0 0-.89 4.81c.22.53.52 1 .9 1.4.37.4.81.7 1.31.94.5.23 1.04.35 1.62.35zm11.69-.05h4.96v1.74h-6.74V4.1h1.78v10.43zm11.63-.05h5.4v1.74h-7.16V4.13h7.05v1.7h-5.3v4.11h4.76v1.66h-4.75v2.89zM105.63 25.8l.54-1.15.55 1.15h-1.1zm.66-2.34h-.23l-2.01 4.27h.66l.64-1.34h1.63l.64 1.34h.65l-1.98-4.27zm-7.39 0h-.6v4.27h2.17v-.59H98.9v-3.68zm-4.77 4.27h2.5v-.6h-1.9v-1.4h1.9v-.6h-1.9v-1.07h1.92v-.6h-2.52v4.27zm-2.55-4.27L90 26.68l-1.6-3.22h-.2l-.61 4.27h.58l.37-2.7 1.35 2.7h.22l1.33-2.68.36 2.68h.6l-.61-4.27h-.21zm10.4 4.27h.61v-4.27h-.6v4.27zm3.77-5.47c.08 0 .2.04.37.13.25.1.42.16.52.16.32 0 .56-.18.74-.54l-.36-.3c-.12.2-.24.3-.35.3-.06 0-.18-.05-.37-.15-.2-.1-.38-.14-.51-.14-.07 0-.13 0-.19.02a.5.5 0 0 0-.15.07 1.05 1.05 0 0 0-.3.32l.28.43c.1-.2.22-.3.32-.3zm-22.73 2.79l-.98-1.6h-.72l1.4 2.27v2.03h.62v-2.03l1.37-2.26H84l-.98 1.59zm-3.21.54a1.3 1.3 0 0 0-.33-.2 1.06 1.06 0 0 0 .23-1.42c-.11-.17-.27-.3-.46-.4-.2-.07-.45-.11-.79-.11h-.92v4.29h1.24c.43 0 .77-.13 1.03-.37.27-.25.4-.55.4-.9 0-.19-.04-.35-.11-.5a1.07 1.07 0 0 0-.3-.4zm-.35 1.23a.6.6 0 0 1-.28.23c-.13.06-.34.08-.62.08h-.4v-1.35c.46 0 .7.02.83.05.18.04.33.13.43.24.1.12.15.25.15.4 0 .13-.03.24-.1.35zm-.94-2.75c.26 0 .46.05.57.13.1.1.15.2.15.36 0 .11-.03.22-.1.32a.62.62 0 0 1-.26.2c-.13.05-.44.08-.72.08v-1.1h.36z"/></g></svg>
