<svg xmlns="http://www.w3.org/2000/svg" width="124" height="62" viewBox="0 0 124 62"><g fill="none" fill-rule="evenodd" transform="translate(6 13)"><path fill="#1D1C1B" d="M54.18 32.37l-.66-.82-.33.25c-.54.43-1 .7-1.65.68-.93-.03-1.7-.7-1.72-1.68-.02-.72.43-1.3 1.1-1.74l.47-.3-.13-.18c-.3-.39-.48-.67-.48-1.15 0-.7.55-1.26 1.3-1.27.77 0 1.3.54 1.33 1.23.02.52-.3.88-.73 1.22l-.36.26 1.27 1.66.7-.78.47.4-.75.89 1.02 1.33h-.85zm-2.45-3.14l-.5.33c-.46.31-.78.81-.76 1.21.03.53.34.93.85 1.08.33.1.86-.06 1.24-.38l.56-.45-1.4-1.79zm.34-2.48c-.36 0-.62.3-.64.66-.01.23.06.37.2.56l.3.43.42-.32c.27-.2.44-.44.4-.78-.05-.38-.34-.57-.68-.55zm-39 5.76a3.19 3.19 0 0 1-3.17-3.18 3.17 3.17 0 0 1 6.35 0 3.2 3.2 0 0 1-3.19 3.18zM13 26.83a2.52 2.52 0 0 0 .05 5.04 2.54 2.54 0 0 0 2.52-2.56A2.5 2.5 0 0 0 13 26.83zm-7.23 5.54V29.4H2.67v2.97h-.7v-6.1h.67v2.5h3.12v-2.5h.7v6.1h-.68zm34.36.12c-.9 0-1.6-.56-1.83-1.42l-.04-.18.62-.18.07.2c.2.55.59.92 1.16.93.65 0 1.25-.52 1.24-1.17 0-.47-.23-.82-.64-1.02l-.97-.44c-.66-.31-1.17-.76-1.17-1.5 0-.88.78-1.54 1.67-1.56.67-.01 1.13.29 1.52.85l.07.1-.53.34-.15-.2c-.23-.32-.52-.48-.92-.45-.52.01-1 .4-1 .91.02.43.3.69.68.87l1.03.47c.66.3 1.05.78 1.1 1.5a1.9 1.9 0 0 1-1.9 1.95zm-7.46-.12v-6.1h.68v5.46h1.65v.64h-2.33zm53.91.14a3.18 3.18 0 0 1-3.16-3.18 3.17 3.17 0 0 1 6.35 0 3.2 3.2 0 0 1-3.19 3.18zm-.05-5.68a2.52 2.52 0 0 0 .05 5.04 2.53 2.53 0 0 0 2.52-2.56 2.5 2.5 0 0 0-2.57-2.48zm-8.46 5.66c-.9 0-1.6-.56-1.83-1.42l-.04-.18.62-.18.08.2c.19.55.58.92 1.15.93.66 0 1.25-.52 1.24-1.17 0-.47-.23-.82-.64-1.02l-.97-.44c-.66-.31-1.17-.76-1.17-1.5 0-.88.78-1.54 1.67-1.56.67-.01 1.13.29 1.52.85l.07.1-.53.34-.14-.2c-.24-.32-.53-.48-.93-.45-.52.01-1 .4-1 .91.02.43.3.69.68.87l1.03.47c.66.3 1.05.78 1.1 1.5a1.9 1.9 0 0 1-1.9 1.95zm-7.54-5.58v1.8h2.38v.6H70.5v2.42h2.47v.64h-3.15v-6.1H73v.64h-2.46zm37.67 5.58c-.9 0-1.61-.56-1.84-1.42l-.04-.18.62-.18.08.2c.2.55.58.92 1.15.93.66 0 1.25-.52 1.24-1.17 0-.47-.22-.82-.64-1.02l-.97-.44c-.66-.31-1.16-.76-1.16-1.5-.01-.88.77-1.54 1.66-1.56.67-.01 1.14.29 1.52.85l.07.1-.53.34-.14-.2a1 1 0 0 0-.93-.45c-.52.01-1 .4-.99.91.01.43.3.69.68.87l1.02.47c.67.3 1.05.78 1.1 1.5a1.9 1.9 0 0 1-1.9 1.95zm-6.74-5.58v5.46h-.68v-5.46h-1.44v-.64h3.61v.64h-1.5zm-5.58 5.46l-1.85-2.69h-.2v2.7h-.66v-6.11h1.16c1.06 0 2.01.44 1.98 1.71-.03 1.08-.68 1.58-1.55 1.65l1.94 2.74h-.82zm-1.49-5.46h-.53v2.2h.43c.66 0 1.33-.38 1.34-1.13 0-.87-.59-1.07-1.24-1.07zm-28.94 5.46l-1.85-2.69h-.2v2.7h-.67v-6.11h1.17c1.06 0 2.01.44 1.98 1.71-.03 1.08-.68 1.58-1.55 1.65l1.94 2.74h-.82zm-1.49-5.46h-.53v2.2h.43c.66 0 1.33-.38 1.34-1.13 0-.87-.59-1.07-1.24-1.07zm-37.14 0v1.8h2.37v.6h-2.4v2.42h2.47v.64h-3.15v-6.1h3.17v.64h-2.46zm-5.78 0v5.46h-.68v-5.46h-1.44v-.64h3.61v.64h-1.5zM6.68 21.33c-3.36.06-6.1-2.8-6.17-6.19a6.4 6.4 0 0 1 6.45-6.46c2.1.03 3.55.71 4.88 2.33l-1.2 1.07a4.74 4.74 0 0 0-3.73-1.86c-2.76-.07-4.8 2.32-4.8 4.99 0 2.5 1.92 4.52 4.65 4.58 2.02.05 3.9-1.36 3.95-3.43H7.83v-1.48h4.65v.68c0 3.16-2.24 5.69-5.8 5.77zm103.42-.28l-1.47-3.15h-5.3l-1.41 3.15h-1.75l5.71-12.7 6.03 12.7h-1.8zm-4.22-8.92l-1.95 4.4h4.05l-2.1-4.4zM95.7 21.05h1.67V8.83H95.7v12.22zm-9.01 0V8.83h1.65v10.6h3.72v1.62H86.7zm-9.45 0L77.2 8.83h6.48v1.62h-4.84v3.12h4.78v1.44h-4.78v4.42h4.84v1.62h-6.44zm-4.78 0l-1.56-7.67-3.76 8.14-3.8-7.88-1.61 7.41h-1.66L62.7 8.44l4.43 9.42 4.37-9.44 2.63 12.63h-1.66zm-30.53-8.73v8.73h-1.68V8.42l9.22 9.04V8.83h1.66V21.4l-9.2-9.09zm-6.26 8.73l-1.48-3.15h-5.3l-1.4 3.15h-1.76l5.71-12.7 6.03 12.7h-1.8zm-4.23-8.92l-1.94 4.4h4.04l-2.1-4.4zm-9.93 8.92l-3.77-5.23h-.54v5.23h-1.72V8.83h2.7c2.1 0 4.24.61 4.32 3.33.03 1.78-1.07 3.03-2.92 3.57l3.92 5.32h-2zm-3.45-10.8h-.86v4.21h.65c1.45 0 3-.7 2.94-2.25-.06-1.63-1.41-1.96-2.73-1.96z"/><path fill="#BF311A" d="M107.92 3.22c-.38.15-2.08.42-2.08 1.97v2.28c0-.78.56-1.57 1.22-1.7L109 5.3c.67-.18 2.1-.65 2.1-1.88V.17c-.03 1.54-.79 2.09-1.28 2.4-.68.43-1.4.47-1.9.65"/></g></svg>
