<svg xmlns="http://www.w3.org/2000/svg" width="124" height="62" viewBox="0 0 124 62"><g fill="#777777" fill-rule="evenodd" transform="translate(10 16)"><path d="M53.77 29.05h3.37v.79h-2.58v1.44h2.58v.79h-2.58v1.88h2.58v.79h-3.37v-5.69zm10.45 0h.8v5.73h-.8v-5.73zm-23.84-.22l-.04.09-1.27 2.1-1.31-2.1-.05-.09h-.96l.13.22 1.8 2.89v2.75h.83v-2.75l1.75-2.89.13-.22h-1zM35 31.76c-.13-.09-.26-.17-.44-.26.13-.09.27-.22.35-.4.13-.21.22-.48.22-.74 0-.3-.09-.57-.22-.79-.17-.21-.35-.43-.61-.52a2.48 2.48 0 0 0-1.1-.18h-1.26v5.87h1.66c.57 0 1.05-.18 1.4-.48.35-.35.52-.75.52-1.23 0-.26-.04-.48-.13-.66-.08-.3-.22-.48-.39-.6zm-.48 1.66a.7.7 0 0 1-.4.31c-.17.09-.43.09-.83.09h-.52v-1.84h.17c.48 0 .8 0 .97.04.26.05.43.18.57.35.13.18.21.36.21.57 0 .18-.04.35-.17.48zm-1.75-3.76h.48c.35 0 .61.09.74.18.13.13.22.26.22.48 0 .17-.04.3-.13.44-.09.13-.22.21-.35.3a3.4 3.4 0 0 1-.83.09h-.17v-1.49h.04zm37.1-.61h-.3l-2.72 5.73h.88l.87-1.8h2.19l.87 1.8h.88l-2.67-5.73zm-.88 3.1l.75-1.52.74 1.53H69zm.1-4.72c.12 0 .3.05.52.18.3.13.56.21.7.21.39 0 .74-.26 1-.74l-.48-.4c-.17.27-.35.4-.48.4-.09 0-.26-.09-.52-.22a1.5 1.5 0 0 0-.7-.17c-.1 0-.18 0-.22.04-.1 0-.13.04-.22.09-.09.04-.13.09-.22.17-.09.1-.13.14-.22.27l-.13.17.48.44c.18-.3.3-.44.48-.44zm-18.25 1.62l.83 5.69h-.79l-.52-3.59-1.75 3.59h-.31l-1.84-3.63-.48 3.63h-.79l.84-5.69h.26l2.14 4.29 2.15-4.29h.26zm9.32 4.9h2.1v.79h-2.9v-5.69h.8v4.9zM0 .22h3.2v19.42H0V.22zm11.2 7.04v12.38H8V0l13.26 12.6V.22h3.2v19.64L11.2 7.26zm21.3 0v12.38h-3.19V0l13.26 12.6V.22h3.2v19.64L32.5 7.26zm16.54 9.28l2.41-2.01c.92 1.22 2.4 2.31 4.11 2.31 1.88 0 2.98-.83 2.98-2.23 0-1.44-.92-2.32-2.8-3.15l-1.53-.65c-2.94-1.27-4.38-3.15-4.38-5.65 0-3.1 2.8-5.16 5.78-5.16a6.7 6.7 0 0 1 5.42 2.45l-2.19 2.27c-1-1.22-1.88-1.7-3.28-1.7-1.31 0-2.58.79-2.58 2.1 0 1.27.88 2.14 2.8 2.97l1.49.7c2.67 1.14 4.46 2.85 4.46 5.56 0 3.28-2.45 5.51-6.17 5.51-2.93 0-5.3-1.31-6.52-3.32zM65.36.22h3.2v19.42h-3.2V.22zm8.05 0h6.17c5.82 0 10.2 4.2 10.2 9.71 0 5.51-4.38 9.71-10.2 9.71h-6.17V.22zm6.13 16.45c4.2 0 6.95-2.93 6.95-6.74 0-3.85-2.75-6.74-6.95-6.74h-2.98v13.52h2.98v-.04zM93.49.22H105v3.1h-8.36v4.95h6.7v3.06h-6.7v5.2H105v3.11H93.5V.22z"/></g></svg>
