<svg xmlns="http://www.w3.org/2000/svg" width="124" height="62" viewBox="0 0 124 62"><g fill="#777777" fill-rule="evenodd"><path d="M39.8 58.71h2.97c1 0 1.6-.58 1.6-1.46 0-.56-.25-1-.76-1.3.28-.2.43-.5.43-.9 0-.78-.47-1.2-1.42-1.2H39.8v4.86zm.6-.56v-1.82h2.48c.56 0 .88.37.88.9 0 .56-.32.92-.88.92H40.4zm0-2.38V54.4h2.27c.52 0 .77.22.77.68 0 .43-.26.68-.77.68H40.4zm6.87 2.94h.59v-2.43l2.16-2.43h-.76l-1.7 1.92-1.7-1.92h-.74l2.15 2.42v2.44zm7.35 0h.59v-3.8l1.89 2.88L59 54.9v3.8h.57v-4.86h-.54l-1.93 2.97-1.93-2.97h-.55v4.86zm7.06 0h3.94v-.56h-3.35V56.4h1.91v-.56h-1.9v-1.42h3.15v-.56h-3.75v4.86zm5.54 0h3.7v-.56H67.8v-4.3h-.6v4.86zm5.13.02h.6v-4.9h-.6v4.9zm5.88-6.64h-.35c-.1.21-.23.32-.42.32a.73.73 0 0 1-.24-.05l-.41-.14a.7.7 0 0 0-.23-.04c-.42 0-.72.29-.84.8h.34c.09-.2.23-.3.4-.3.1 0 .17.01.23.03l.41.13c.1.03.2.05.29.05.4 0 .67-.27.82-.8zm-3.85 6.62h.64l.63-1.3h2.63l.65 1.3h.64l-2.36-4.86h-.5l-2.33 4.86zm1.54-1.88l1.05-2.15 1.05 2.15h-2.1zM73.74 29.85c1.65-.12 3.06-1.14 4.24-1.8 2.35-1.27 4.47-1.8 4.3-5.23-.59-.42-1.12-.78-1.65-1.2-2.3-.13-6.78.24-6.78 3-.59 1.08-.17 3.67-.11 5.23zm-2.07-8.41c-.35.36-.35.24-.47.9h.18c.18-.18.23-.12.41-.42.12-.18.12-.18.18-.48h-.3zm-.29-6.92l-.18 6.01h.47l.3-.3c-.41-1.14-.18-4.09-.18-5.7h-.4zm-.18 16.9c.24 0 .41-.37.6-.37.23-.42.29-.72.29-1.5-.48-.42-.53-3.97-.12-5.1h-.47c-.12.11-.06.05-.3.17-.23 2.16 0 4.33 0 6.8zm-2.06 3.84c-.06.3-.11.54-.11.78-.36.67.11 1.57.11 1.63-.35-.54.89 1.08 1.3.06-.18-.36-.47-2.59-.59-3.01-.18 0-.53.54-.7.54zm-39.46-3.48h.59c.12-.3.41-.67.47-.9.06-1.15-.59-2.41-.3-4.04.48-2.7.48-8.71 0-11.3-.35-1.8-.17-3.42-.76-4.8-.12.17-.06.05-.12.3-.3.48-.23 2.1-.18 2.88.12.84.18 3.06.18 4.63 0 4.63.12 8.18.12 13.23zm21.5-16.36c-1.71 2.95-4.95 5.41-7.78 7.34-1.11.78-2.35.78-3.7 1.38-1.13.48-3.6 2.17-5.3 1.02-.83-.3-1.66-1.62-2.07-2.4-.06.06-.06.12-.12.18-.35.84.12 2.28-.47 3 .36.37.3.97.3 1.8h-.42c0 .97.3 1.39.41 2.11-.05.3-.05.6-.11.9.23 1.33.11 2.4.88 3.43.41.6 1.3.42 1.6 1.2 1.58 2.35-3.66 5.17-5.02 4.09-.4-.54-1-1.8-1.17-2.4v-2.1c-.77-3.38-.24-6.26-.41-10.11-.12-2.34-.65-5.65-.3-7.93a8.17 8.17 0 0 1-.18-2.59c.24-1.32-.47-2.95-.3-3.9.54-2.77 4.13-5.06 6.96-5.12.12.36.12.24.3.6.64 1.03.76 2.83.88 4.21.06.54-.36 1.03-.18 1.69.59 2.1.77 4.5 1.65 6.6.59 1.4.53 3.56 2.47 3.62 1.3 1.26 4.42-1.5 5.19-2.41.23-.3.82-.48 1-.78 1.3-1.92 2.47-3.73 3.83-5.53.53-.66.65-2.16 1.06-2.89.11-.18.59-.12.59-.12.82-1.38.58-3.36 2.65-3.48.76-.54 2.35.12 2.76.78.95 1.38-.4 7.21-.11 10.34.3 3-.94 9.07-.18 12.62.41 1.69.53 3.85 1.06 5.41v.9c.53 1.45 1.53 2.9 1.77 4.51-.47.43-.7.49-1.65.49 0-.06-1.53-2.05-1.6-2.1l-.88-.19-1.35-1.32c-.35-.66 0-1.32-.3-2.1-.4-1.45-1.7-4.82-1.17-6.8-.47-.06-.3-1.86-.3-2.83.36-.72-.23-1.92-.12-2.88.24-2.28-.05-5.47.3-8.24h-.47zm18.11 26.52a8.49 8.49 0 0 1-1.15-.49c-2.83.24-4.54-2.76-2.83-5.28 1.06-1.51 2.95-2.35 4.3-3.91-.47-.67-.47-4.63-.47-6.74-1.35-.12-2.65.42-4.12.13-.18-.37-.24-.49-.3-1.03 1.07-.84 1.95-2.28 3.13-3 .4-.18.88-.3 1.3-.49v-.6c.1-.12.35-4.75.29-5.4-.89-.07-1.18 0-1.48-.73.6-.42 1.18-.78 1.77-1.2.47-.9-.06-1.68.3-2.7.58-1.81 2.47-3.07 4.41-3.5l.3.49c-.12.96-.3 1.92-.41 2.82.35.24.05 0 .29.3 2.24-1.74 10.43-4.57 13.55-2.22.53.66 1 1.14 1 2.4-.47.6-1.65 2.77-2.48 2.23-.35-.3-.35-.9-.29-1.63h-.3c-.53-.41-1.35-.18-2.06-.48-2.65-.9-3.12-.54-5.48.18-.64.19-1.17-.06-2.06.3-.76.37-1.35 1.03-2.35 1.2-.18 1.7-.53 7.58-.3 8.24.18.12.18.12.48.18 1.35-1.14 6.77-3.18 8.83-2.4 1 .42 2.06-.12 2.36 1.02h.4c1.07 4.75-5.47 8.54-8.94 10.22-1 .48-2.48 1.08-3.19 1.74.06.24.18 2.17.24 2.65.24 2.47.24 3.07.3 4.03v.18h.7c1.3.54 5.3-.42 7.07-.9.82-.24 2.06-.3 2.65-.18a44.76 44.76 0 0 1 11.07-1.63l-.17.72c-.83.13-1.12.55-1.77.79-1.77.54-3.89.42-5.3 1.2-1.83-.24-3.77.78-5.89 1.5-.41.12-.88-.12-1.3 0a52.04 52.04 0 0 1-8.7 1.98l-3.4.01z"/></g></svg>
