<svg xmlns="http://www.w3.org/2000/svg" width="124" height="62" viewBox="0 0 124 62"><g fill="none" fill-rule="evenodd" transform="translate(11 6)"><path fill="#6F665C" d="M7.07 44.2H3.42v-3.1h-.77v7.41h.77v-3.56h3.65v3.56h.77V41.1h-.77v3.1zm6.48-3.29a3.71 3.71 0 0 0-3.3 1.95 3.98 3.98 0 0 0 .62 4.71 3.69 3.69 0 0 0 2.74 1.12c1.07 0 1.97-.37 2.72-1.13a3.81 3.81 0 0 0 1.11-2.76c0-1.1-.38-2.01-1.12-2.76a3.75 3.75 0 0 0-2.77-1.13zm2.7 5.48a3.04 3.04 0 0 1-2.67 1.54 2.9 2.9 0 0 1-2.15-.89c-.6-.6-.9-1.33-.9-2.2a3.1 3.1 0 0 1 3.04-3.17 3.06 3.06 0 0 1 3.07 3.13c.01.58-.12 1.12-.39 1.6zm2.38-4.53h1.62v6.65h.8v-6.65h1.6v-.76h-4.02v.76zm5.55 6.65h4.17v-.76h-3.42v-2.86h3.42v-.76h-3.42v-2.27h3.45v-.76h-4.2v7.41zm6.68-7.41h-.77v7.41h3.56v-.75h-2.79V41.1zm6.3 3.2c-.54-.39-.85-.63-.95-.73a1.72 1.72 0 0 1-.35-.48c-.06-.15-.1-.3-.1-.46 0-.26.1-.47.28-.65a.97.97 0 0 1 .7-.26c.23 0 .43.06.62.17.19.11.42.35.7.72v.02l.63-.49-.01-.01a3.53 3.53 0 0 0-.95-.96 2 2 0 0 0-.97-.26c-.33 0-.63.08-.91.23a1.67 1.67 0 0 0-.88 1.52c0 .41.13.8.4 1.14.14.21.52.55 1.12 1.01.6.47 1.02.86 1.25 1.18.16.24.24.47.24.71 0 .22-.06.42-.16.61a1.38 1.38 0 0 1-1.17.62c-.55 0-1.04-.39-1.48-1.2l-.01-.02-.65.4v.02c.3.56.64.96 1.01 1.2.35.24.76.36 1.2.36.59 0 1.08-.19 1.48-.59a1.94 1.94 0 0 0 .25-2.53c-.24-.37-.66-.79-1.3-1.26zM50 47.78l-.75-.74c.28-.2.57-.44.88-.72l.01-.02-.52-.56-.01.02c-.22.2-.52.44-.9.73l-.7-.73-1.1-1.16c.5-.42.84-.78 1-1.06.18-.28.27-.55.27-.8 0-.23-.07-.46-.2-.67a1.39 1.39 0 0 0-.59-.5 1.9 1.9 0 0 0-.83-.2c-.49 0-.9.15-1.22.43-.29.24-.43.56-.43.93 0 .21.06.44.18.67.1.23.36.59.75 1.07a6.18 6.18 0 0 0-1.38 1.4 2.1 2.1 0 0 0-.35 1.1c0 .5.17.91.51 1.24.34.33.8.5 1.36.5.43 0 .83-.08 1.21-.23a6.1 6.1 0 0 0 1.47-.96l.96 1h1.06l-.03-.03c-.19-.22-.4-.45-.65-.7zm-4.23-4.67a.7.7 0 0 1-.1-.37c0-.17.08-.3.24-.43a1 1 0 0 1 .62-.19 1 1 0 0 1 .63.18c.16.13.24.27.24.43 0 .14-.06.3-.18.5-.18.25-.44.52-.78.8-.29-.34-.51-.64-.67-.92zm1.04 4.7c-.24.1-.5.16-.75.16-.34 0-.61-.1-.84-.32a.95.95 0 0 1-.35-.72c0-.23.1-.5.28-.77.2-.27.59-.64 1.2-1.1l.64.72 1.13 1.19c-.5.4-.93.68-1.31.84zm12.29-2.95c.35-.16.62-.39.8-.7.2-.3.29-.67.29-1.07a1.85 1.85 0 0 0-1.48-1.88 8.6 8.6 0 0 0-1.64-.1h-1.46v7.41h.76V45.1h.38l2.6 3.42h.96l-2.6-3.42c.59 0 1.05-.1 1.39-.24zm-2.73-.52v-2.47h1.26c.5 0 .85.05 1.06.13.21.09.38.23.5.43.14.2.2.42.2.66 0 .25-.06.48-.19.68-.13.2-.3.35-.53.43-.23.1-.59.14-1.07.14h-1.23zm5.84 4.18h4.17v-.76h-3.4v-2.86h3.4v-.76h-3.4v-2.27h3.43v-.76h-4.2v7.41zm7.8-4.2c-.52-.4-.83-.64-.93-.74a1.5 1.5 0 0 1-.35-.48 1.1 1.1 0 0 1-.1-.46c0-.26.1-.47.28-.65a.95.95 0 0 1 .7-.26c.22 0 .43.06.61.17.19.11.43.35.7.72v.02l.64-.49-.01-.01a3.5 3.5 0 0 0-.96-.96 1.94 1.94 0 0 0-1.87-.03 1.71 1.71 0 0 0-.89 1.52c0 .41.14.8.4 1.14.15.21.53.55 1.13 1.01A6 6 0 0 1 70.6 46a1.2 1.2 0 0 1 .08 1.32c-.1.2-.27.34-.48.46-.21.11-.44.17-.68.17-.56 0-1.06-.4-1.49-1.2v-.03l-.66.4.01.02c.3.56.64.96 1 1.2s.76.36 1.2.36h.01c.58 0 1.07-.19 1.47-.59a1.93 1.93 0 0 0 .26-2.53c-.24-.37-.67-.79-1.3-1.26zm7.13-3.4a3.73 3.73 0 0 0-3.3 1.94 4 4 0 0 0 .63 4.72 3.69 3.69 0 0 0 2.73 1.12c1.07 0 1.99-.37 2.72-1.13a3.78 3.78 0 0 0 1.11-2.76c0-1.1-.36-2.01-1.1-2.76a3.75 3.75 0 0 0-2.79-1.13zm2.7 5.48c-.27.48-.64.86-1.1 1.13a3.07 3.07 0 0 1-4.6-2.68 3.09 3.09 0 0 1 3.04-3.17c.54 0 1.05.14 1.54.42a3.01 3.01 0 0 1 1.52 2.7c0 .6-.13 1.13-.4 1.6zm6.65-1.54a1.81 1.81 0 0 0 1.09-1.77c0-.48-.14-.9-.41-1.23a1.88 1.88 0 0 0-1.07-.65c-.28-.07-.83-.1-1.64-.1H83v7.41h.77V45.1h.37l2.61 3.42h.95l-2.6-3.42c.58 0 1.05-.1 1.4-.24zm-2.72-.52v-2.47h1.25c.5 0 .85.05 1.06.13.22.09.38.23.51.43a1.22 1.22 0 0 1 0 1.34c-.12.2-.3.35-.53.43a3 3 0 0 1-1.07.14h-1.22zm5.17-2.47h1.61v6.65h.79v-6.65h1.62v-.76h-4.02v.76zm8.71 3.71a5.4 5.4 0 0 0-1.3-1.26c-.53-.4-.84-.64-.94-.74a1.81 1.81 0 0 1-.35-.48c-.06-.15-.1-.3-.1-.46 0-.26.1-.47.28-.65a.95.95 0 0 1 .7-.26c.23 0 .43.06.62.17.19.11.42.35.69.72l.01.02.62-.49v-.01a3.45 3.45 0 0 0-.95-.96c-.3-.17-.63-.26-.98-.26a1.8 1.8 0 0 0-1.55.87c-.15.26-.23.56-.23.88 0 .41.14.8.4 1.14.14.21.52.55 1.13 1.01.6.47 1 .86 1.24 1.18.16.24.24.47.24.71a1.21 1.21 0 0 1-.65 1.07c-.2.11-.44.17-.67.17-.56 0-1.05-.4-1.49-1.2l-.01-.03-.66.4.02.02c.3.56.63.96 1 1.2.36.24.76.36 1.2.36a2 2 0 0 0 1.48-.59 1.93 1.93 0 0 0 .25-2.53z"/><path fill="#072244" d="M32.09 29.55H44.4v-2.9h-9.36v-6.9h9.36v-2.9h-9.36v-5.32h9.45V8.62h-12.4v20.93zM91.7 8.62h-1.1l-9.88 20.93h3.28l3.1-6.57h8.01l3.14 6.57h3.2L91.7 8.62zM88.5 20.09l2.66-5.64 2.66 5.64h-5.32zM19.59 8.62l-7.75 15.8-7.82-15.8H2.99L0 29.55h2.88L4.7 16.28l6.59 13.27h1.1l6.5-13.16 1.82 13.16h2.93L20.6 8.62H19.6zm35.89 0h-2.94v20.93h10.62v-2.88h-7.68V8.62zm15.17 20.93h2.95V8.62h-2.95v20.93zm18.4-26.83c.42 0 1.05.21 1.9.64 1.17.51 2.02.77 2.53.77 1.52 0 2.72-.88 3.6-2.66L95.34 0c-.63 1-1.2 1.5-1.72 1.5-.28 0-.9-.25-1.87-.74a5.78 5.78 0 0 0-2.5-.72c-.32 0-.6.04-.87.11s-.53.18-.78.35c-.26.16-.5.37-.74.62s-.49.56-.75.93l-.4.57 1.82 1.54c.51-.96 1.03-1.44 1.54-1.44z"/></g></svg>
