<svg xmlns="http://www.w3.org/2000/svg" width="124" height="62" viewBox="0 0 124 62"><g fill="#777777" fill-rule="evenodd" transform="translate(9 2)"><path d="M76.88 52.75l.44.2-.62.6h-.34l.52-.8zm.52 3.6l-.88-1.97-.89 1.97h1.77zm-1.08-2.48h.4l1.77 3.9h-.47l-.45-1.03h-2.1L75 57.77h-.44l1.76-3.9zm-6.76 3.9H70V53.9h-.44v3.87zm-7.2-3.87h.43v3.46h2.17v.4h-2.6V53.9zm-7.46 0h2.79v.39h-2.36v1.33h2.11v.4h-2.1v1.35h2.38v.4H54.9V53.9zm-8.55 0h.44l1.4 2.1 1.41-2.1h.45v3.87h-.44v-3.14l-1.4 2.07h-.03l-1.4-2.06v3.13h-.43V53.9zm-10.06 2.33l-1.6-2.33h.52l1.3 1.93 1.31-1.93h.51l-1.6 2.33v1.54h-.44v-1.54zm-8.95-2.33h1.64c.22 0 .42.03.59.09.17.06.3.14.42.25.16.17.25.38.25.62 0 .13-.02.24-.06.34a.85.85 0 0 1-.33.44c-.07.05-.15.09-.22.12l.32.13c.1.05.19.12.26.2a.84.84 0 0 1 .24.6v.02a.93.93 0 0 1-.38.78c-.12.09-.27.16-.44.2-.18.05-.37.08-.58.08h-1.71V53.9zm1.73 3.47c.3 0 .52-.06.7-.18a.6.6 0 0 0 .25-.5v-.02a.56.56 0 0 0-.26-.49 1.38 1.38 0 0 0-.77-.17h-1.22v1.36h1.3zm-.16-1.75c.27 0 .48-.06.65-.18.16-.11.24-.29.24-.51v-.01c0-.2-.07-.35-.22-.46a1.02 1.02 0 0 0-.63-.17h-1.18v1.33h1.14zM56.67 43.06a5.1 5.1 0 0 0 1.93-.35 4.34 4.34 0 0 0 2.4-2.39c.22-.54.33-1.13.33-1.76v-.03a4.68 4.68 0 0 0-1.26-3.2c-.4-.4-.89-.73-1.47-.97a5 5 0 0 0-1.93-.36H54v9.06h2.66zm-3.42-9.76h3.42c.8 0 1.54.13 2.2.4a4.9 4.9 0 0 1 2.85 2.75c.27.63.4 1.31.4 2.05v.03c0 .74-.13 1.43-.4 2.06a4.87 4.87 0 0 1-2.85 2.77c-.66.27-1.4.4-2.2.4h-3.42V33.3zm49.17 10.61a5.65 5.65 0 0 1-4.13-1.67l.5-.58c.28.27.56.5.84.7a4.7 4.7 0 0 0 3.9.7c.32-.11.59-.25.81-.44a2 2 0 0 0 .53-.66c.13-.25.2-.53.2-.83v-.03c0-.28-.05-.53-.13-.74a1.44 1.44 0 0 0-.46-.6 3.3 3.3 0 0 0-.88-.49 9.06 9.06 0 0 0-1.44-.4 9.77 9.77 0 0 1-1.58-.45 3.9 3.9 0 0 1-1.08-.61 2.1 2.1 0 0 1-.61-.82c-.13-.3-.2-.66-.2-1.06v-.03c0-.39.1-.75.26-1.09.16-.33.4-.62.69-.87.3-.25.64-.44 1.04-.58a5.35 5.35 0 0 1 3.25.1c.54.21 1.07.53 1.59.96l-.49.61a4.7 4.7 0 0 0-1.47-.91 4.63 4.63 0 0 0-1.6-.27c-.37 0-.72.05-1.02.16-.31.1-.58.24-.8.42-.22.18-.39.4-.5.63-.12.24-.18.5-.18.76v.03c0 .28.04.53.13.76.08.22.23.43.45.61.22.19.53.35.92.5.39.15.89.3 1.5.42 1.19.25 2.05.6 2.57 1.06.53.45.8 1.06.8 1.83v.03a2.63 2.63 0 0 1-.96 2.06c-.3.25-.66.44-1.08.58-.41.14-.87.21-1.37.21zm-12.99.02c-.62 0-1.18-.1-1.7-.3a3.65 3.65 0 0 1-2.2-2.27c-.2-.56-.3-1.2-.3-1.95V33.3h.75v6.04c0 1.24.3 2.2.92 2.88.61.67 1.46 1 2.56 1 .52 0 .99-.07 1.4-.23.43-.16.79-.4 1.09-.72.3-.32.52-.72.68-1.2a5.2 5.2 0 0 0 .25-1.66V33.3h.76v6.02c0 .75-.1 1.41-.3 1.98-.21.58-.5 1.06-.87 1.45-.38.39-.82.68-1.33.88-.51.2-1.08.3-1.71.3zm-12.38-.02a5.65 5.65 0 0 1-4.13-1.67l.5-.58c.28.27.56.5.84.7a4.7 4.7 0 0 0 3.9.7c.31-.11.59-.25.81-.44a2 2 0 0 0 .53-.66c.13-.25.2-.53.2-.83v-.03c0-.28-.05-.53-.13-.74a1.44 1.44 0 0 0-.46-.6 3.3 3.3 0 0 0-.88-.49 9.06 9.06 0 0 0-1.44-.4 9.77 9.77 0 0 1-1.59-.45 3.9 3.9 0 0 1-1.07-.61 2.1 2.1 0 0 1-.61-.82c-.13-.3-.2-.66-.2-1.06v-.03c0-.39.09-.75.26-1.09.16-.33.4-.62.69-.87.29-.25.64-.44 1.04-.58a5.35 5.35 0 0 1 3.25.1c.54.21 1.07.53 1.59.96l-.49.61a4.7 4.7 0 0 0-1.47-.91 4.63 4.63 0 0 0-1.6-.27c-.37 0-.72.05-1.03.16-.3.1-.57.24-.79.42-.22.18-.39.4-.5.63-.12.24-.18.5-.18.76v.03c0 .28.04.53.12.76.09.22.24.43.46.61.22.19.52.35.92.5.39.15.89.3 1.5.42 1.18.25 2.04.6 2.57 1.06.53.45.8 1.06.8 1.83v.03a2.63 2.63 0 0 1-.97 2.06c-.3.25-.65.44-1.07.58-.41.14-.87.21-1.37.21zm-9.8-.15H68V33.3h-.76v10.46zm-24.1-10.54h.73l4.78 10.54h-.84l-1.3-2.93h-6.06l-1.3 2.93h-.8l4.79-10.54zm3.05 6.91l-2.7-6.06-2.72 6.06h5.42zM26.22 33.3h4.31c.64 0 1.2.09 1.69.27.49.19.89.44 1.2.76a2.7 2.7 0 0 1 .78 1.94v.03a2.66 2.66 0 0 1-.86 2.06c-.27.26-.58.46-.95.61-.37.16-.77.26-1.2.32l3.4 4.47h-.98l-3.27-4.33h-3.36v4.33h-.76V33.3zm4.23 5.43c.43 0 .82-.06 1.2-.17.36-.11.67-.27.94-.47a2.19 2.19 0 0 0 .85-1.76v-.04c0-.7-.26-1.27-.77-1.68a3.41 3.41 0 0 0-2.18-.61h-3.5v4.73h3.46zm-14.33-5.5h.73l4.78 10.53h-.83l-1.31-2.93h-6.06l-1.3 2.93h-.8l4.79-10.54zm3.05 6.9l-2.7-6.06-2.71 6.06h5.4zM0 33.3h3.73c.56 0 1.08.07 1.54.21.47.15.87.36 1.2.63.34.28.6.61.79 1 .18.4.28.85.28 1.36v.03a3.05 3.05 0 0 1-1.2 2.5c-.36.27-.79.48-1.27.62-.49.14-1 .21-1.54.21H.76v3.9H0V33.3zm3.58 5.86c.48 0 .91-.06 1.3-.18.4-.12.73-.3 1-.52a2.4 2.4 0 0 0 .9-1.89v-.03c0-.42-.08-.79-.23-1.1a2.17 2.17 0 0 0-.64-.8c-.27-.2-.6-.36-.98-.47-.38-.12-.8-.17-1.26-.17H.77v5.16h2.8zM49.81 13.57c.08.03.13 0 .09-.09a2.87 2.87 0 0 0-1.96-1.23 6.05 6.05 0 0 0-2.8.13 5.1 5.1 0 0 0-2.66 1.91 3.7 3.7 0 0 0-.54 2.7c.15.83.37 1.14 1 1.54.52.32.9.27 1.23.16.28-.1.36-.36.16-.7-.13-.23-.55-.3-.74-.38-.54-.23-1.07-1.19-.31-2.6.04 1 .99 2.19 2.1 1.46.6-.4.7-1.49.96-1.89.48-.72.97-1.2 1.7-1.28.77-.1 1.52.13 1.77.27zm4.81-9.2a34.23 34.23 0 0 0-1.48 6.56c-.04.45-.1 1.16-.14 1.33v.01c-.02.06-.03.1-.05.1l-.04-.1c-.04-.18-.14-.86-.19-1.43a33.6 33.6 0 0 0-1.43-6.47c-.4-1.03-.44-1.37.2-2.1.81-.9 1.47-2.27 1.47-2.27s.65 1.36 1.46 2.27c.65.73.6 1.07.2 2.1zm-4.81 10.77c-.19.33-.3.63-.3.96 0 .23.05.47.19.73.15.3.35.4.48.43.12.03.2 0 .24-.01.21-.63.59-.99.95-1.32.39-.34.87-.54 1.33-.54h.4c.46 0 .94.2 1.33.54.36.33.72.68.96 1.33h.23c.14-.03.33-.13.49-.43.13-.27.19-.5.19-.73 0-.33-.12-.63-.3-.96a3.65 3.65 0 0 0-3.06-1.76h-.09c-.48.02-2.14.2-3.04 1.76zm4.41 2.5c0 .68-.59 1.23-1.32 1.23-.73 0-1.31-.55-1.31-1.23 0-.68.58-1.23 1.31-1.23.73 0 1.32.55 1.32 1.23zm-.25-5.17c.13-3.13 1.5-8.11 4.02-9.33.3-.15.66-.35 1.23-.19.62.18 1.12.74 1.08 1.8-.03.9-.36 1.21-1.28 1.69a9.65 9.65 0 0 0-2.93 2.45c-1.03 1.28-1.79 2.52-2 3.56-.08.3-.12.16-.12.02zm4.86-1.68a3.9 3.9 0 0 1 2.21.47c.52.33 1.68-.2 1.45-1.41 0 0 .36.1.38.91 0 .57-.3.9-.15 1.2.3.58.94-.38 1.03-1.1a3.83 3.83 0 0 0-.5-2.24c-.46-.82-1.23-.98-1.93-1.06-1.05-.13-2.62.56-3.69 1.48a8.27 8.27 0 0 0-2.53 3.72c-.07.26.02.21.07.12.17-.39.97-1.76 3.66-2.1zm-1.04 2.5c.73.1 1.21.57 1.7 1.3.26.4.36 1.49.95 1.88 1.12.73 2.07-.46 2.11-1.45.75 1.4.22 2.36-.31 2.59-.2.08-.6.15-.75.38-.19.34-.12.6.17.7.32.11.7.16 1.22-.16.64-.4.86-.7 1.01-1.54a3.7 3.7 0 0 0-.54-2.7 5.1 5.1 0 0 0-2.67-1.9 6.06 6.06 0 0 0-2.8-.14c-.8.14-1.61.64-1.95 1.24-.05.08 0 .11.08.08.26-.14 1-.36 1.78-.27zm-5.94-.82c-.12-3.13-1.49-8.11-4.01-9.33-.31-.15-.66-.35-1.23-.19-.62.18-1.12.74-1.09 1.8.03.9.37 1.21 1.29 1.69a9.63 9.63 0 0 1 2.93 2.45c1.03 1.28 1.78 2.52 2 3.56.08.3.12.16.11.02zm-1.19.4c.04.1.14.15.06-.11a8.26 8.26 0 0 0-2.53-3.72c-1.07-.92-2.64-1.61-3.68-1.48-.7.08-1.47.24-1.94 1.06a3.82 3.82 0 0 0-.49 2.24c.08.72.73 1.68 1.03 1.1.14-.3-.16-.63-.15-1.2.01-.82.38-.91.38-.91-.24 1.2.92 1.74 1.45 1.41A3.9 3.9 0 0 1 47 10.8c2.68.33 3.48 1.7 3.66 2.09z"/></g></svg>
