<svg xmlns="http://www.w3.org/2000/svg" width="124" height="62" viewBox="0 0 124 62"><g fill="none" fill-rule="evenodd"><path fill="#626262" d="M46.81 53.59c0 1.7-.82 2.49-2.22 2.49-1.25 0-2.15-.7-2.15-2.08v-4.88c0-.31.25-.56.56-.56.32 0 .57.25.57.56v2.38c.2-.2.64-.41 1.14-.41 1.3 0 2.1.8 2.1 2.5zm-3.24.41c0 .72.42 1.13 1.02 1.13.72 0 1.11-.52 1.11-1.54 0-1.03-.4-1.55-1.1-1.55-.63 0-1.03.53-1.03.53V54zm5.16 1.61l-1.6-3.68a.58.58 0 0 1-.04-.22c0-.31.25-.56.56-.56.32 0 .47.22.52.35l1.14 2.89 1.15-2.89c.05-.13.2-.35.52-.35.3 0 .56.25.56.56 0 .1-.02.17-.05.22l-1.93 4.36c-.45 1.01-1.1 1.74-2.14 1.74-.3 0-.54-.22-.54-.52 0-.3.23-.52.54-.52.66 0 .97-.53 1.31-1.38zm8.66-1.06l-1.63-2.9v3.79a.6.6 0 0 1-.6.59.6.6 0 0 1-.58-.6v-5.96c0-.32.27-.6.59-.6.26 0 .42.15.53.34l2.2 3.94 2.2-3.94c.1-.19.27-.33.53-.33.32 0 .59.27.59.59v5.97a.6.6 0 0 1-.6.59.6.6 0 0 1-.58-.6v-3.77l-1.63 2.9c-.1.18-.3.29-.51.29-.21 0-.4-.1-.51-.3zm7-3.46c1.76 0 2.08 1.35 2.08 2.06 0 .39 0 .83-.63.83h-2.57c0 .75.53 1.1 1.22 1.1.45 0 .78-.16 1.03-.33.1-.07.2-.11.33-.11.27 0 .49.22.49.49 0 .16-.09.3-.18.38-.18.17-.73.57-1.67.57-1.44 0-2.34-.78-2.34-2.51 0-1.59.83-2.48 2.24-2.48zm-1.09 1.96h2.06c0-.5-.3-1-.97-1-.6 0-1.03.34-1.09 1zm5.12-3.93v5.68c0 .13.13.2.2.2.29 0 .52.22.52.5 0 .3-.23.53-.52.53-.81 0-1.32-.46-1.32-1.33v-5.58c0-.31.25-.56.56-.56.31 0 .56.25.56.56zm2.52 6.35c0 .3-.25.56-.56.56a.56.56 0 0 1-.56-.56V51.7c0-.31.25-.56.56-.56.31 0 .56.25.56.56v3.76zm-1.22-5.53c0-.48.24-.69.66-.69.44 0 .68.2.68.69 0 .4-.24.65-.68.65-.42 0-.66-.25-.66-.65zm5.08-.38c.08-.1.2-.17.35-.17.22 0 .4.17.4.4 0 .04-.01.13-.03.17-.15.34-.5.54-.9.54-.57 0-.99-.36-1.33-.36-.12 0-.19.06-.27.17-.07.1-.2.18-.34.18a.4.4 0 0 1-.4-.4c0-.05 0-.13.02-.17.15-.35.5-.54.9-.54.58 0 .95.35 1.33.35.12 0 .19-.05.27-.17zm-2 2.92c-.1.07-.19.1-.31.1a.49.49 0 0 1-.49-.48c0-.12.04-.24.14-.35.29-.32.8-.66 1.7-.66 1.29 0 2.05.63 2.05 1.73v2.66c0 .3-.25.55-.55.55a.55.55 0 0 1-.55-.55c-.28.44-.73.6-1.36.6-1.01 0-1.69-.63-1.69-1.57 0-.96.78-1.46 1.68-1.46h1.36v-.19c0-.46-.34-.78-.94-.78-.46 0-.78.21-1.04.4zm1.98 1.73v-.29h-1.21c-.46 0-.7.22-.7.6 0 .39.27.63.85.63.55 0 1.06-.36 1.06-.94zM62.23 43.55c1.84 0 2.62-1.65 2.62-3.54 0-2-.83-3.5-2.62-3.5-1.8 0-2.63 1.5-2.63 3.5 0 1.89.78 3.54 2.63 3.54m0-9.33c3.72 0 5.7 2.53 5.7 5.8 0 3.08-1.5 5.81-5.7 5.81-4.22 0-5.72-2.73-5.72-5.82 0-3.26 2-5.8 5.72-5.8zm-11.58 2.51c3.18.72 3.98 2.6 3.98 4.38 0 2.75-2.07 4.8-6.26 4.8-4.4 0-6.37-2.2-6.37-3.84 0-.85.61-1.44 1.46-1.44 1.88 0 1.4 2.75 4.9 2.75 1.8 0 2.8-1 2.8-2.01 0-.62-.3-1.3-1.48-1.59l-3.91-1c-3.16-.8-3.73-2.53-3.73-4.16 0-3.39 3.13-4.66 6.07-4.66 2.71 0 5.9 1.53 5.9 3.56 0 .87-.73 1.37-1.58 1.37-1.6 0-1.31-2.26-4.55-2.26-1.6 0-2.5.74-2.5 1.8s1.27 1.4 2.37 1.65l2.9.65zm25.2 7.7c0-.67-.41-1.05-1.1-1.05h-.45c-.56 0-.82-.26-.82-.73V31.46c0-1.03-.62-1.57-1.57-1.57-.95 0-1.57.54-1.57 1.57v11.57c0 1.85.95 2.8 3.23 2.8 1.5 0 2.28-.5 2.28-1.4z"/><path fill="#00B09D" d="M89.49 40.25l-.28-.05a7.23 7.23 0 0 1-3.49-1.72 8.42 8.42 0 0 1-2.26-2.93l-.11-.24.25-.05c.42-.1.95 0 1.42.13l.32.07c.24.06.49.11.7.21.23.11.47.28.67.43l.11.08c1.1.78 2.4 1.92 2.63 3.79l.04.28zM84.28 45c-.13 0-.22-.1-.27-.17a34.1 34.1 0 0 1-1.39-1.69c-.24-.3-.5-.61-.73-.93a5.16 5.16 0 0 1-1.19-3.89c0-.14.1-.21.2-.23h.04l.04.01a4.34 4.34 0 0 1 3.07 3.21l.08.3.16.52c.26.8.58 1.8.2 2.73l-.03.07-.1.06h-.08z"/><path fill="#00A0E2" d="M87.56 27.18a3.6 3.6 0 0 1-.54-.04c-.48-.08-.9-.26-1.28-.54l-.18-.14.14-.16c.55-.64 1.39-1 2.42-1.05.65-.03 1.31.05 1.94.12l.74.08.46.04-.34.32c-.33.3-.7.55-1.05.73-.6.3-1.4.64-2.31.64zm3.95 7.26c-.95 0-2.04-.23-2.92-.6a9.42 9.42 0 0 1-3.32-2.5l-.3-.34h.46c2.75.03 4.92.66 7.02 1.28l.78.22.1.03.03.09c.14.3.2.7.18 1.26v.13l-.12.05a4.5 4.5 0 0 1-1.9.38zM83.98 22c-.57 0-1.13-.06-1.64-.17l-.34-.07.23-.26c.95-1.11 2.5-2.6 5.02-2.71.6-.03 1.1.02 1.48.16l.2.08-.1.2a4.43 4.43 0 0 1-2.4 2.36c-.65.26-1.52.4-2.45.4z"/><path fill="#DB0C41" d="M54.67 22.72c-.53 0-1.1-.08-1.62-.24-.67-.2-1.4-.52-2.27-1-.7-.38-1.39-.77-2.03-1.24a3.83 3.83 0 0 1-1.22-1.31c-.18-.36-.23-.62-.17-.8.04-.14.19-.27.77-.42.3-.08.6-.13.9-.13.28 0 1.27.02 1.94.23.18.06.36.14.53.22l.2.08c1.45.63 2.7 1.39 3.72 2.24l.08.07c.18.15.39.32.46.5.1.25.11.58.11.9 0 .17 0 .33.02.47l.02.15-.14.06c-.36.15-.8.22-1.3.22zm8.86-8.07l-.22-.03a6.69 6.69 0 0 1-3.68-1.8 5.16 5.16 0 0 1-1.76-3.23c-.04-.18-.07-.37-.05-.52.05-.25.4-.51.7-.51h.04c.37.02.65.23.9.42.1.07.2.15.3.2a7.83 7.83 0 0 1 2.02 1.83c.7.84 1.46 1.9 1.71 3.43l.04.21zm-5.19 3.22a3.67 3.67 0 0 1-1.55-.35c-.3-.13-.61-.28-.8-.47a1.72 1.72 0 0 1-.18-.26l-.08-.12c-.22-.31-.45-.68-.66-1.01l-.03-.05c-.3-.49-.6-1.03-.75-1.67l-.04-.2.19-.05c.26-.07.5-.14.78-.15 1.44-.1 2.44.61 3.05 1.14.8.7 1.32 1.53 1.6 2.56l.03.13-.1.08c-.37.27-.88.42-1.46.42z"/><path fill="#F9964A" d="M67.98 14.06a.71.71 0 0 1-.24-.04c-.37-.13-.48-.62-.53-1.02a50.6 50.6 0 0 1-.3-3.66c-.07-1.45-.02-2.94.77-3.9.13-.17.27-.33.41-.37a1 1 0 0 1 .3-.05c.31 0 .62.12.8.23.04.03.26.18.3.32.02.1 0 .23-.03.42a828.7 828.7 0 0 0-.83 7.81l-.01.11-.18.06c-.14.04-.3.1-.46.1zm5.89.86l-.07-.12c-.45-.8-.6-1.78-.4-2.63.3-1.2.86-2.17 1.4-3.1l.59-1.05c.24-.46.49-.95.68-1.54.03-.06.04-.13.06-.2.03-.14.07-.28.13-.4.08-.18.26-.36.53-.55.22-.15.55-.33.94-.33.12 0 .23.02.34.05.36.1.66.48.72.88.03.23 0 .5-.03.74v.1c-.39 3.85-2.58 6.25-4.2 7.72l-.23.2-.04.04c-.05.06-.14.15-.29.17l-.13.02zm4.67 2.76l-.05-.33c-.18-.98.1-1.92.73-2.52.2-.19.42-.34.64-.5l.27-.18c.46-.34.88-.7 1.32-1.07.4-.33.8-.67 1.24-1a4.06 4.06 0 0 1 2.49-.96c.17 0 .36.01.54.04l.19.03-.02.19c-.16 1.84-1.02 3.06-2.8 3.96a26.05 26.05 0 0 1-2.27.99c-.7.3-1.38.69-2.01 1.15l-.27.2z"/></g></svg>
