<svg xmlns="http://www.w3.org/2000/svg" width="124" height="62" viewBox="0 0 124 62"><g fill="none" fill-rule="evenodd"><polygon fill="#777777" points="33.828 59.932 90.933 59.932 90.933 2.828 33.828 2.828"/><path fill="#FEFEFE" d="M41.93 32.97h1.77V13.9h2.65v-1.6h-7.07v1.6h2.65v19.07zm40.16 22.8v-3.68h1.23l.58 2.5.62-2.5h1.2v3.68h-.76v-2.84l-.71 2.84h-.74l-.67-2.84v2.84h-.75zm-5.16 0l1.02-3.68h1.01l1 3.68h-.81l-.2-.82H77.9l-.2.82h-.77zm1.48-2.97l-.36 1.59h.73l-.37-1.59zm-4.41.76V52.1h.76v3.68H74v-1.64h-.88v1.64h-.77v-3.68h.77v1.47H74zm-6.55-1.47h1.28c1 0 1.2.68 1.2 1.82 0 .56.08 1.86-1.23 1.86h-1.25v-3.68zm.77 3.11h.37c.47 0 .56-.35.56-1.27 0-.68 0-1.27-.54-1.27h-.4v2.54zm-5.95.57v-3.68h1.03l.98 2.55h.01v-2.55h.72v3.68H64l-1-2.69h-.02v2.69h-.71zm-3.94-1.28l-.96-2.4h.84l.55 1.56.58-1.56h.78l-1.02 2.4v1.28h-.77v-1.28zm-7.3-2.4h.78l.48 2.58h.01l.58-2.58h.9l.55 2.58h.01l.46-2.58h.75l-.8 3.68h-.86l-.57-2.69h-.01l-.64 2.69h-.83l-.82-3.68zm-6.52 2.4l-.96-2.4h.83l.55 1.56.59-1.56h.78l-1.03 2.4v1.28h-.76v-1.28zm-5.56 1.28v-3.68h1.36c.59 0 1.07.17 1.07.95 0 .43-.2.73-.62.81v.01c.54.08.68.43.68.93 0 .93-.8.98-1.13.98h-1.36zm.77-.57h.43c.16 0 .53 0 .53-.52 0-.32-.13-.52-.51-.52h-.45v1.04zm0-1.6h.51c.17 0 .4-.12.4-.47 0-.27-.18-.47-.44-.47h-.47v.93zM79.7 32.96h1.78v-9.3h1.04c2.29 0 2.96-.8 2.96-3.16v-5.06c0-2.35-.67-3.15-2.96-3.15H79.7v20.67zm1.78-10.91V13.9h.86c.8 0 1.37.23 1.37 1.29v5.58c0 1.06-.57 1.29-1.37 1.29h-.86zm-12.22-.37h-.05l-1.7-9.4h-1.77l2.6 11.69v8.99h1.78v-9l2.6-11.67h-1.77l-1.69 9.39zM57.4 32.97h1.77v-8.85c0-1.43-.75-1.83-2.02-1.92v-.05c1.37-.09 1.94-.63 1.94-2.24v-5.24c0-2.06-1.05-2.37-2.74-2.37h-3.3v20.67h1.77v-9.94H56c.83 0 1.4.26 1.4 1.26v8.68zm-2.58-11.54V13.9h1c.9 0 1.5.2 1.5 1.4v4.64c0 1.23-.49 1.49-1.32 1.49h-1.18z"/></g></svg>